<svg aria-hidden="true" xmlns="http://www.w3.org/2000/svg" xmlns:xlink="http://www.w3.org/1999/xlink"><symbol viewBox="0 0 24 24" id="aside-file-text-icon" xmlns="http://www.w3.org/2000/svg">
<path d="M14 2H6C5.46957 2 4.96086 2.21071 4.58579 2.58579C4.21071 2.96086 4 3.46957 4 4V20C4 20.5304 4.21071 21.0391 4.58579 21.4142C4.96086 21.7893 5.46957 22 6 22H18C18.5304 22 19.0391 21.7893 19.4142 21.4142C19.7893 21.0391 20 20.5304 20 20V8L14 2Z" stroke-width="2" stroke-linecap="round" stroke-linejoin="round"/>
<path d="M14 2V8H20" stroke-width="2" stroke-linecap="round" stroke-linejoin="round"/>
<path d="M16 13H8" stroke-width="2" stroke-linecap="round" stroke-linejoin="round"/>
<path d="M16 17H8" stroke-width="2" stroke-linecap="round" stroke-linejoin="round"/>
<path d="M10 9H9H8" stroke-width="2" stroke-linecap="round" stroke-linejoin="round"/>
</symbol><symbol viewBox="0 0 20 19" id="creators-arrow-right" xmlns="http://www.w3.org/2000/svg">
<path d="M2 10L16 10" stroke-width="2" stroke-linecap="round" stroke-linejoin="round"/>
<path d="M10 4L16 10L10 16" stroke-width="2" stroke-linecap="round" stroke-linejoin="round"/>
</symbol><symbol viewBox="0 0 24 24" id="creators-icon" xmlns="http://www.w3.org/2000/svg">
<path d="M20.24 12.24C21.3658 11.1141 21.9983 9.58716 21.9983 7.99497C21.9983 6.40279 21.3658 4.87582 20.24 3.74997C19.1142 2.62413 17.5872 1.99164 15.995 1.99164C14.4028 1.99164 12.8758 2.62413 11.75 3.74997L5 10.5V19H13.5L20.24 12.24Z" stroke-width="2" stroke-linecap="round" stroke-linejoin="round"/>
<path d="M16 8L2 22" stroke-width="2" stroke-linecap="round" stroke-linejoin="round"/>
<path d="M17.5 15H9" stroke-width="2" stroke-linecap="round" stroke-linejoin="round"/>
</symbol><symbol viewBox="0 0 48 48" id="icons-facebook" xmlns="http://www.w3.org/2000/svg"><path d="M24 5A19 19 0 1 0 24 43A19 19 0 1 0 24 5Z"/><path d="M26.572,29.036h4.917l0.772-4.995h-5.69v-2.73c0-2.075,0.678-3.915,2.619-3.915h3.119v-4.359c-0.548-0.074-1.707-0.236-3.897-0.236c-4.573,0-7.254,2.415-7.254,7.917v3.323h-4.701v4.995h4.701v13.729C22.089,42.905,23.032,43,24,43c0.875,0,1.729-0.08,2.572-0.194V29.036z"/></symbol><symbol viewBox="0 0 48 48" id="icons-facebook-messenger" xmlns="http://www.w3.org/2000/svg"><path d="M24,4C13.5,4,5,12.1,5,22c0,5.2,2.3,9.8,6,13.1V44l7.8-4.7c1.6,0.4,3.4,0.7,5.2,0.7c10.5,0,19-8.1,19-18C43,12.1,34.5,4,24,4z"/><path d="M12 28L22 17 27 22 36 17 26 28 21 23z"/></symbol><symbol viewBox="0 0 48 48" id="icons-instagram" xmlns="http://www.w3.org/2000/svg"><path d="M41.67,13.48c-0.4,0.26-0.97,0.5-1.21,0.77c-0.09,0.09-0.14,0.19-0.12,0.29v1.03l-0.3,1.01l-0.3,1l-0.33,1.1 l-0.68,2.25l-0.66,2.22l-0.5,1.67c0,0.26-0.01,0.52-0.03,0.77c-0.07,0.96-0.27,1.88-0.59,2.74c-0.19,0.53-0.42,1.04-0.7,1.52 c-0.1,0.19-0.22,0.38-0.34,0.56c-0.4,0.63-0.88,1.21-1.41,1.72c-0.41,0.41-0.86,0.79-1.35,1.11c0,0,0,0-0.01,0 c-0.08,0.07-0.17,0.13-0.27,0.18c-0.31,0.21-0.64,0.39-0.98,0.55c-0.23,0.12-0.46,0.22-0.7,0.31c-0.05,0.03-0.11,0.05-0.16,0.07 c-0.57,0.27-1.23,0.45-1.89,0.54c-0.04,0.01-0.07,0.01-0.11,0.02c-0.4,0.07-0.79,0.13-1.19,0.16c-0.18,0.02-0.37,0.03-0.55,0.03 l-0.71-0.04l-3.42-0.18c0-0.01-0.01,0-0.01,0l-1.72-0.09c-0.13,0-0.27,0-0.4-0.01c-0.54-0.02-1.06-0.08-1.58-0.19 c-0.01,0-0.01,0-0.01,0c-0.95-0.18-1.86-0.5-2.71-0.93c-0.47-0.24-0.93-0.51-1.36-0.82c-0.18-0.13-0.35-0.27-0.52-0.42 c-0.48-0.4-0.91-0.83-1.31-1.27c-0.06-0.06-0.11-0.12-0.16-0.18c-0.06-0.06-0.12-0.13-0.17-0.19c-0.38-0.48-0.7-0.97-0.96-1.49 c-0.24-0.46-0.43-0.95-0.58-1.49c-0.06-0.19-0.11-0.37-0.15-0.57c-0.01-0.01-0.02-0.03-0.02-0.05c-0.1-0.41-0.19-0.84-0.24-1.27 c-0.06-0.33-0.09-0.66-0.09-1c-0.02-0.13-0.02-0.27-0.02-0.4l1.91-2.95l1.87-2.88l0.85-1.31l0.77-1.18l0.26-0.41v-1.03 c0.02-0.23,0.03-0.47,0.02-0.69c-0.01-0.7-0.15-1.38-0.38-2.03c-0.22-0.69-0.53-1.34-0.85-1.94c-0.38-0.69-0.78-1.31-1.11-1.87 C14,7.4,13.66,6.73,13.75,6.26C14.47,6.09,15.23,6,16,6h16c4.18,0,7.78,2.6,9.27,6.26C41.43,12.65,41.57,13.06,41.67,13.48z"/><path d="M42,16v0.27l-1.38,0.8l-0.88,0.51l-0.97,0.56l-1.94,1.13l-1.9,1.1l-1.94,1.12l-0.77,0.45 c0,0.48-0.12,0.92-0.34,1.32c-0.31,0.58-0.83,1.06-1.49,1.47c-0.67,0.41-1.49,0.74-2.41,0.98c0,0,0-0.01-0.01,0 c-3.56,0.92-8.42,0.5-10.78-1.26c-0.66-0.49-1.12-1.09-1.32-1.78c-0.06-0.23-0.09-0.48-0.09-0.73v-7.19 c0.01-0.15-0.09-0.3-0.27-0.45c-0.54-0.43-1.81-0.84-3.23-1.25c-1.11-0.31-2.3-0.62-3.3-0.92c-0.79-0.24-1.46-0.48-1.86-0.71 c0.18-0.35,0.39-0.7,0.61-1.03c1.4-2.05,3.54-3.56,6.02-4.13C14.47,6.09,15.23,6,16,6h10.8c5.37,0.94,10.32,3.13,14.47,6.26 c0.16,0.39,0.3,0.8,0.4,1.22c0.18,0.66,0.29,1.34,0.32,2.05C42,15.68,42,15.84,42,16z"/><path d="M42,16v4.41l-0.22,0.68l-0.75,2.33l-0.78,2.4l-0.41,1.28l-0.38,1.19l-0.37,1.13l-0.36,1.12l-0.19,0.59 l-0.25,0.78c0,0.76-0.02,1.43-0.07,2c-0.01,0.06-0.02,0.12-0.02,0.18c-0.06,0.53-0.14,0.98-0.27,1.36 c-0.01,0.06-0.03,0.12-0.05,0.17c-0.26,0.72-0.65,1.18-1.23,1.48c-0.14,0.08-0.3,0.14-0.47,0.2c-0.53,0.18-1.2,0.27-2.02,0.32 c-0.6,0.04-1.29,0.05-2.07,0.05H31.4l-1.19-0.05L30,37.61l-2.17-0.09l-2.2-0.09l-7.25-0.3l-1.88-0.08h-0.26 c-0.78-0.01-1.45-0.06-2.03-0.14c-0.84-0.13-1.49-0.35-1.98-0.68c-0.7-0.45-1.11-1.11-1.35-2.03c-0.06-0.22-0.11-0.45-0.14-0.7 c-0.1-0.58-0.15-1.25-0.18-2c0-0.15,0-0.3-0.01-0.46c-0.01-0.01,0-0.01,0-0.01v-0.58c-0.01-0.29-0.01-0.59-0.01-0.9l0.05-1.61 l0.03-1.15l0.04-1.34v-0.19l0.07-2.46l0.07-2.46l0.07-2.31l0.06-2.27l0.02-0.6c0-0.31-1.05-0.49-2.22-0.64 c-0.93-0.12-1.95-0.23-2.56-0.37c0.05-0.23,0.1-0.46,0.16-0.68c0.18-0.72,0.45-1.4,0.79-2.05c0.18-0.35,0.39-0.7,0.61-1.03 c2.16-0.95,4.41-1.69,6.76-2.17c2.06-0.43,4.21-0.66,6.43-0.66c7.36,0,14.16,2.49,19.54,6.69c0.52,0.4,1.03,0.83,1.53,1.28 C42,15.68,42,15.84,42,16z"/><path d="M42,18.37v4.54l-0.55,1.06l-1.05,2.05l-0.56,1.08l-0.51,0.99l-0.22,0.43c0,0.31,0,0.61-0.02,0.9 c0,0.43-0.02,0.84-0.05,1.22c-0.04,0.45-0.1,0.86-0.16,1.24c-0.15,0.79-0.36,1.47-0.66,2.03c-0.04,0.07-0.08,0.14-0.12,0.2 c-0.11,0.18-0.24,0.35-0.38,0.51c-0.18,0.22-0.38,0.41-0.61,0.57c-0.34,0.26-0.74,0.47-1.2,0.63c-0.57,0.21-1.23,0.35-2.01,0.43 c-0.51,0.05-1.07,0.08-1.68,0.08l-0.42,0.02l-2.08,0.12h-0.01L27.5,36.6l-2.25,0.13l-3.1,0.18l-3.77,0.22l-0.55,0.03 c-0.51,0-0.99-0.03-1.45-0.09c-0.05-0.01-0.09-0.02-0.14-0.02c-0.68-0.11-1.3-0.29-1.86-0.54c-0.68-0.3-1.27-0.7-1.77-1.18 c-0.44-0.43-0.82-0.92-1.13-1.47c-0.07-0.13-0.14-0.25-0.2-0.39c-0.3-0.59-0.54-1.25-0.72-1.97c-0.03-0.12-0.06-0.25-0.08-0.38 c-0.06-0.23-0.11-0.47-0.14-0.72c-0.11-0.64-0.17-1.32-0.2-2.03v-0.01c-0.01-0.29-0.02-0.57-0.02-0.87l-0.49-1.17l-0.07-0.18 L9.5,25.99L8.75,24.2l-0.12-0.29l-0.72-1.73l-0.8-1.93c0,0,0,0-0.01,0L6.29,18.3L6,17.59V16c0-0.63,0.06-1.25,0.17-1.85 c0.05-0.23,0.1-0.46,0.16-0.68c0.85-0.49,1.74-0.94,2.65-1.34c2.08-0.93,4.31-1.62,6.62-2.04c1.72-0.31,3.51-0.48,5.32-0.48 c7.31,0,13.94,2.65,19.12,6.97c0.2,0.16,0.39,0.32,0.58,0.49C41.09,17.48,41.55,17.91,42,18.37z"/><path d="M42,21.35v5.14l-0.57,1.19l-1.08,2.25l-0.01,0.03c0,0.43-0.02,0.82-0.05,1.17c-0.1,1.15-0.38,1.88-0.84,2.33 c-0.33,0.34-0.74,0.53-1.25,0.63c-0.03,0.01-0.07,0.01-0.1,0.02c-0.16,0.03-0.33,0.05-0.51,0.05c-0.62,0.06-1.35,0.02-2.19-0.04 c-0.09,0-0.19-0.01-0.29-0.02c-0.61-0.04-1.26-0.08-1.98-0.11c-0.39-0.01-0.8-0.02-1.22-0.02h-0.02l-1.01,0.08h-0.01l-2.27,0.16 l-2.59,0.2l-0.38,0.03l-3.03,0.22l-1.57,0.12l-1.55,0.11c-0.27,0-0.53,0-0.79-0.01c0,0-0.01-0.01-0.01,0 c-1.13-0.02-2.14-0.09-3.04-0.26c-0.83-0.14-1.56-0.36-2.18-0.69c-0.64-0.31-1.17-0.75-1.6-1.31c-0.41-0.55-0.71-1.24-0.9-2.07 c0-0.01,0-0.01,0-0.01c-0.14-0.67-0.22-1.45-0.22-2.33l-0.15-0.27L9.7,26.35l-0.13-0.22L9.5,25.99l-0.93-1.65l-0.46-0.83 l-0.58-1.03l-1-1.79L6,19.75v-3.68c0.88-0.58,1.79-1.09,2.73-1.55c1.14-0.58,2.32-1.07,3.55-1.47c1.34-0.44,2.74-0.79,4.17-1.02 c1.45-0.24,2.94-0.36,4.47-0.36c6.8,0,13.04,2.43,17.85,6.47c0.22,0.17,0.43,0.36,0.64,0.54c0.84,0.75,1.64,1.56,2.37,2.41 C41.86,21.18,41.94,21.26,42,21.35z"/><path d="M42,24.71v7.23c-0.24-0.14-0.57-0.31-0.98-0.49c-0.22-0.11-0.47-0.22-0.73-0.32 c-0.38-0.17-0.79-0.33-1.25-0.49c-0.1-0.04-0.2-0.07-0.31-0.1c-0.18-0.07-0.37-0.13-0.56-0.19c-0.59-0.18-1.24-0.35-1.92-0.5 c-0.26-0.05-0.53-0.1-0.8-0.14c-0.87-0.15-1.8-0.24-2.77-0.25c-0.08-0.01-0.17-0.01-0.25-0.01l-2.57,0.02l-3.5,0.02h-0.01 l-7.49,0.06c-2.38,0-3.84,0.57-4.72,0.8c0,0-0.01,0-0.01,0.01c-0.93,0.24-1.22,0.09-1.3-1.54c-0.02-0.45-0.03-1.03-0.03-1.74 l-0.56-0.43l-0.98-0.74l-0.6-0.46l-0.12-0.09L8.88,24.1l-0.25-0.19l-0.52-0.4l-0.96-0.72L6,21.91v-3.4 c0.1-0.08,0.19-0.15,0.29-0.21c1.45-1,3-1.85,4.64-2.54c1.46-0.62,3-1.11,4.58-1.46c0.43-0.09,0.87-0.18,1.32-0.24 c1.33-0.23,2.7-0.34,4.09-0.34c6.01,0,11.53,2.09,15.91,5.55c0.66,0.52,1.3,1.07,1.9,1.66c0.82,0.78,1.59,1.61,2.3,2.49 c0.14,0.18,0.28,0.36,0.42,0.55C41.64,24.21,41.82,24.46,42,24.71z"/><path d="M42,28.72V32c0,0.65-0.06,1.29-0.18,1.91c-0.18,0.92-0.49,1.8-0.91,2.62c-0.22,0.05-0.47,0.05-0.75,0.01 c-0.63-0.11-1.37-0.44-2.17-0.87c-0.04-0.01-0.08-0.03-0.11-0.05c-0.25-0.13-0.51-0.27-0.77-0.43c-0.53-0.29-1.09-0.61-1.65-0.91 c-0.12-0.06-0.24-0.12-0.35-0.18c-0.64-0.33-1.3-0.63-1.96-0.86c0,0,0,0-0.01,0c-0.14-0.05-0.29-0.1-0.44-0.14 c-0.57-0.16-1.15-0.26-1.71-0.26l-1.1-0.32l-4.87-1.41c0,0,0,0-0.01,0l-2.99-0.87h-0.01l-1.3-0.38c-3.76,0-6.07,1.6-7.19,0.99 c-0.44-0.23-0.7-0.81-0.79-1.95c-0.03-0.32-0.04-0.68-0.04-1.1l-1.17-0.57l-0.05-0.02h-0.01l-0.84-0.42L9.7,26.35l-0.07-0.03 l-0.17-0.09L7.5,25.28L6,24.55v-3.43c0.17-0.15,0.35-0.29,0.53-0.43c0.19-0.15,0.38-0.29,0.57-0.44c0.01,0,0.01,0,0.01,0 c1.18-0.85,2.43-1.6,3.76-2.22c1.55-0.74,3.2-1.31,4.91-1.68c0.25-0.06,0.51-0.12,0.77-0.16c1.42-0.27,2.88-0.41,4.37-0.41 c5.27,0,10.11,1.71,14.01,4.59c1.13,0.84,2.18,1.77,3.14,2.78c0.79,0.83,1.52,1.73,2.18,2.67c0.05,0.07,0.1,0.14,0.15,0.2 c0.37,0.54,0.71,1.09,1.03,1.66C41.64,28.02,41.82,28.37,42,28.72z"/><path d="M41.82,33.91c-0.18,0.92-0.49,1.8-0.91,2.62c-0.19,0.37-0.4,0.72-0.63,1.06c-0.14,0.21-0.29,0.41-0.44,0.6 c-0.36-0.14-0.89-0.34-1.54-0.56c0,0,0,0,0-0.01c-0.49-0.17-1.05-0.35-1.65-0.52c-0.17-0.05-0.34-0.1-0.52-0.15 c-0.71-0.19-1.45-0.36-2.17-0.46c-0.6-0.1-1.19-0.16-1.74-0.16l-0.46-0.13h-0.01l-2.42-0.7l-1.49-0.43l-1.66-0.48h-0.01l-0.54-0.15 l-6.53-1.88l-1.88-0.54l-1.4-0.33l-2.28-0.54l-0.28-0.07c0,0,0,0-0.01,0l-2.29-0.53c0-0.01,0-0.01,0-0.01l-0.41-0.09l-0.21-0.05 l-1.67-0.39l-0.19-0.05l-1.42-1.17L6,27.9v-4.08c0.37-0.36,0.75-0.7,1.15-1.03c0.12-0.11,0.25-0.21,0.38-0.31 c0.12-0.1,0.25-0.2,0.38-0.3c0.91-0.69,1.87-1.31,2.89-1.84c1.3-0.7,2.68-1.26,4.13-1.66c0.28-0.09,0.56-0.17,0.85-0.23 c1.64-0.41,3.36-0.62,5.14-0.62c4.47,0,8.63,1.35,12.07,3.66c1.71,1.15,3.25,2.53,4.55,4.1c0.66,0.79,1.26,1.62,1.79,2.5 c0.05,0.07,0.09,0.13,0.13,0.2c0.32,0.53,0.62,1.08,0.89,1.64c0.25,0.5,0.47,1,0.67,1.52C41.34,32.25,41.6,33.07,41.82,33.91z"/><path d="M40.28,37.59c-0.14,0.21-0.29,0.41-0.44,0.6c-0.44,0.55-0.92,1.05-1.46,1.49c-0.47,0.39-0.97,0.74-1.5,1.04 c-0.2-0.05-0.4-0.11-0.61-0.19c-0.66-0.23-1.35-0.61-1.99-1.01c-0.96-0.61-1.79-1.27-2.16-1.57c-0.14-0.12-0.21-0.18-0.21-0.18 l-1.7-0.15L30,37.6l-2.2-0.19l-2.28-0.2l-3.37-0.3l-5.34-0.47l-0.02-0.01l-1.88-0.91l-1.9-0.92l-1.53-0.74l-0.33-0.16l-0.41-0.2 l-1.42-0.69L7.43,31.9l-0.59-0.29L6,31.35v-4.47c0.47-0.56,0.97-1.09,1.5-1.6c0.34-0.32,0.7-0.64,1.07-0.94 c0.06-0.05,0.12-0.1,0.18-0.14c0.04-0.05,0.09-0.08,0.13-0.1c0.59-0.48,1.21-0.91,1.85-1.3c0.74-0.47,1.52-0.89,2.33-1.24 c0.87-0.39,1.78-0.72,2.72-0.97c1.63-0.46,3.36-0.7,5.14-0.7c4.08,0,7.85,1.24,10.96,3.37c1.99,1.36,3.71,3.08,5.07,5.07 c0.45,0.64,0.85,1.32,1.22,2.02c0.13,0.26,0.26,0.52,0.37,0.78c0.12,0.25,0.23,0.5,0.34,0.75c0.21,0.52,0.4,1.04,0.57,1.58 c0.32,1,0.56,2.02,0.71,3.08C40.21,36.89,40.25,37.24,40.28,37.59z"/><path d="M38.39,39.42c0,0.08,0,0.17-0.01,0.26c-0.47,0.39-0.97,0.74-1.5,1.04c-0.22,0.12-0.44,0.24-0.67,0.34 c-0.23,0.11-0.46,0.21-0.7,0.3c-0.34-0.18-0.8-0.4-1.29-0.61c-0.69-0.31-1.44-0.59-2.02-0.68c-0.14-0.03-0.27-0.04-0.39-0.04 l-1.64-0.21h-0.02l-2.04-0.27l-2.06-0.27l-0.96-0.12l-7.56-0.98c-0.49,0-1.01-0.03-1.55-0.1c-0.66-0.06-1.35-0.16-2.04-0.3 c-0.68-0.12-1.37-0.28-2.03-0.45c-0.69-0.16-1.37-0.35-2-0.53c-0.73-0.22-1.41-0.43-1.98-0.62c-0.47-0.15-0.87-0.29-1.18-0.4 c-0.18-0.43-0.33-0.88-0.44-1.34C6.1,33.66,6,32.84,6,32v-1.67c0.32-0.53,0.67-1.05,1.06-1.54c0.71-0.94,1.52-1.8,2.4-2.56 c0.03-0.04,0.07-0.07,0.1-0.09l0.01-0.01c0.31-0.28,0.63-0.53,0.97-0.77c0.04-0.04,0.08-0.07,0.12-0.1 c0.16-0.12,0.33-0.24,0.51-0.35c1.43-0.97,3.01-1.73,4.7-2.24c1.6-0.48,3.29-0.73,5.05-0.73c3.49,0,6.75,1.03,9.47,2.79 c2.01,1.29,3.74,2.99,5.06,4.98c0.16,0.23,0.31,0.46,0.46,0.7c0.69,1.17,1.26,2.43,1.68,3.75c0.05,0.15,0.09,0.3,0.13,0.46 c0.08,0.27,0.15,0.55,0.21,0.83c0.02,0.07,0.04,0.14,0.06,0.22c0.14,0.63,0.24,1.29,0.31,1.95c0,0.01,0,0.01,0,0.01 C38.36,38.22,38.39,38.82,38.39,39.42z"/><path d="M36.33,39.42c0,0.35-0.02,0.73-0.06,1.11c-0.02,0.18-0.04,0.36-0.06,0.53c-0.23,0.11-0.46,0.21-0.7,0.3 c-0.45,0.17-0.91,0.31-1.38,0.41c-0.32,0.07-0.65,0.13-0.98,0.16h-0.01c-0.31-0.19-0.67-0.42-1.04-0.68 c-0.67-0.47-1.37-1-1.93-1.43c-0.01-0.01-0.01-0.01-0.02-0.02c-0.59-0.45-1.01-0.79-1.01-0.79l-1.06,0.04l-2.04,0.07l-0.95,0.04 l-3.82,0.14l-3.23,0.12c-0.21,0.01-0.46,0.01-0.77,0h-0.01c-0.42-0.01-0.92-0.04-1.47-0.09c-0.64-0.05-1.34-0.11-2.05-0.18 c-0.69-0.08-1.39-0.16-2.06-0.24c-0.74-0.08-1.44-0.17-2.04-0.25c-0.47-0.06-0.88-0.11-1.21-0.15c-0.28-0.32-0.53-0.65-0.77-1.01 c-0.36-0.54-0.67-1.11-0.91-1.72c-0.18-0.43-0.33-0.88-0.44-1.34c0.29-0.89,0.67-1.73,1.12-2.54c0.36-0.66,0.78-1.29,1.24-1.89 c0.45-0.59,0.94-1.14,1.47-1.64v-0.01c0.15-0.15,0.3-0.29,0.45-0.42c0.28-0.26,0.57-0.5,0.87-0.73h0.01 c0.01-0.02,0.02-0.02,0.03-0.03c0.24-0.19,0.49-0.36,0.74-0.53c1.48-1.01,3.15-1.76,4.95-2.2c1.19-0.29,2.44-0.45,3.73-0.45 c2.54,0,4.94,0.61,7.05,1.71h0.01c1.81,0.93,3.41,2.21,4.7,3.75c0.71,0.82,1.32,1.72,1.82,2.67c0.35,0.64,0.65,1.31,0.9,1.99 c0.02,0.06,0.04,0.11,0.06,0.16c0.17,0.5,0.32,1.02,0.45,1.54c0.09,0.37,0.16,0.75,0.22,1.13c0.02,0.12,0.04,0.23,0.05,0.35 C36.28,37.99,36.33,38.7,36.33,39.42z"/><path d="M34.28,39.42v0.1c0,0.34-0.03,0.77-0.06,1.23c-0.03,0.34-0.06,0.69-0.09,1.02c-0.32,0.07-0.65,0.13-0.98,0.16 h-0.01C32.76,41.98,32.39,42,32,42h-1.75l-0.38-0.11l-1.97-0.6l-2-0.6l-4.63-1.39l-2-0.6c0,0-0.83,0.33-2,0.72h-0.01 c-0.45,0.15-0.94,0.31-1.46,0.47c-0.65,0.19-1.34,0.38-2.02,0.53c-0.7,0.16-1.39,0.28-2.01,0.33c-0.19,0.02-0.38,0.03-0.55,0.03 c-0.56-0.31-1.1-0.68-1.59-1.09c-0.43-0.36-0.83-0.75-1.2-1.18c-0.28-0.32-0.53-0.65-0.77-1.01c0.07-0.45,0.15-0.89,0.27-1.32 c0.3-1.19,0.77-2.33,1.39-3.37c0.34-0.59,0.72-1.16,1.16-1.69c0.01-0.03,0.04-0.06,0.07-0.08c-0.01-0.01,0-0.01,0-0.01 c0.13-0.17,0.27-0.33,0.41-0.48c0-0.01,0-0.01,0-0.01c0.41-0.44,0.83-0.86,1.29-1.25c0.16-0.13,0.31-0.26,0.48-0.39 c0.03-0.03,0.06-0.05,0.1-0.08c2.25-1.72,5.06-2.76,8.09-2.76c3.44,0,6.57,1.29,8.94,3.41c1.14,1.03,2.11,2.26,2.84,3.63 c0.06,0.1,0.12,0.21,0.17,0.32c0.09,0.18,0.18,0.37,0.26,0.57c0.33,0.72,0.59,1.48,0.77,2.26c0.02,0.08,0.04,0.16,0.06,0.24 c0.08,0.37,0.15,0.75,0.2,1.13C34.24,38.21,34.28,38.81,34.28,39.42z"/><path d="M32.22,39.42c0,0.2-0.01,0.42-0.02,0.65c-0.02,0.37-0.05,0.77-0.1,1.18c-0.02,0.25-0.06,0.5-0.1,0.75h-5.48 l-1.06-0.17l-4.14-0.66l-0.59-0.09l-1.35-0.22c-0.59,0-1.87,0.26-3.22,0.51c-0.71,0.13-1.43,0.27-2.08,0.36 c-0.08,0.01-0.16,0.02-0.23,0.03h-0.01c-0.7-0.15-1.38-0.38-2.02-0.68c-0.2-0.09-0.4-0.19-0.6-0.3c-0.56-0.31-1.1-0.68-1.59-1.09 c-0.01-0.12-0.02-0.22-0.02-0.27c0-0.26,0.01-0.51,0.03-0.76c0.04-0.64,0.13-1.26,0.27-1.86c0.22-0.91,0.54-1.79,0.97-2.6 c0.08-0.17,0.17-0.34,0.27-0.5c0.04-0.08,0.09-0.15,0.13-0.23c0.18-0.29,0.38-0.57,0.58-0.85c0.42-0.55,0.89-1.07,1.39-1.54 c0.01,0,0.01,0,0.01,0c0.04-0.04,0.08-0.08,0.12-0.11c0.05-0.04,0.09-0.09,0.14-0.12c0.2-0.18,0.4-0.34,0.61-0.49 c0-0.01,0.01-0.01,0.01-0.01c1.89-1.41,4.23-2.24,6.78-2.24c1.98,0,3.82,0.5,5.43,1.38h0.01c1.38,0.76,2.58,1.79,3.53,3.03 c0.37,0.48,0.7,0.99,0.98,1.53h0.01c0.05,0.1,0.1,0.2,0.15,0.3c0.3,0.59,0.54,1.21,0.72,1.85h0.01c0.01,0.05,0.03,0.1,0.04,0.15 c0.12,0.43,0.22,0.87,0.29,1.32c0.01,0.09,0.02,0.19,0.03,0.28C32.19,38.43,32.22,38.92,32.22,39.42z"/><path d="M30.17,39.31c0,0.16,0,0.33-0.02,0.49v0.01c0,0.01,0,0.01,0,0.01c-0.02,0.72-0.12,1.43-0.28,2.07 c0,0.04-0.01,0.07-0.03,0.11h-4.67l-3.85-0.83l-0.51-0.11l-0.08,0.02l-4.27,0.88L16.27,42H16c-0.64,0-1.27-0.06-1.88-0.18 c-0.09-0.02-0.18-0.04-0.27-0.06h-0.01c-0.7-0.15-1.38-0.38-2.02-0.68c-0.02-0.11-0.04-0.22-0.05-0.33 c-0.07-0.43-0.1-0.88-0.1-1.33c0-0.17,0-0.34,0.01-0.51c0.03-0.54,0.11-1.07,0.23-1.58c0.08-0.38,0.19-0.75,0.32-1.1 c0.11-0.31,0.24-0.61,0.38-0.9c0.12-0.25,0.26-0.49,0.4-0.73c0.14-0.23,0.29-0.45,0.45-0.67c0.4-0.55,0.87-1.06,1.39-1.51 c0.3-0.26,0.63-0.51,0.97-0.73c1.46-0.96,3.21-1.52,5.1-1.52c0.37,0,0.73,0.02,1.08,0.07h0.02c1.07,0.12,2.07,0.42,2.99,0.87 c0.01,0,0.01,0,0.01,0c1.45,0.71,2.68,1.78,3.58,3.1c0.15,0.22,0.3,0.46,0.43,0.7c0.11,0.19,0.21,0.39,0.3,0.59 c0.14,0.31,0.27,0.64,0.38,0.97h0.01c0.11,0.37,0.21,0.74,0.28,1.13v0.01C30.11,38.16,30.17,38.73,30.17,39.31z"/><path d="M28.11,39.52v0.03c0,0.59-0.07,1.17-0.21,1.74c-0.05,0.24-0.12,0.48-0.21,0.71h-4.48l-2.29-0.63L18.63,42H16 c-0.64,0-1.27-0.06-1.88-0.18c-0.02-0.03-0.03-0.06-0.04-0.09c-0.14-0.43-0.25-0.86-0.3-1.31c-0.04-0.29-0.06-0.59-0.06-0.9 c0-0.12,0-0.25,0.02-0.37c0.01-0.47,0.08-0.93,0.2-1.37c0.06-0.3,0.15-0.59,0.27-0.87c0.04-0.14,0.1-0.27,0.17-0.4 c0.15-0.34,0.33-0.67,0.53-0.99c0.22-0.32,0.46-0.62,0.73-0.9c0.32-0.36,0.68-0.69,1.09-0.96c0.7-0.51,1.5-0.89,2.37-1.1 c0.58-0.16,1.19-0.24,1.82-0.24c2,0,3.79,0.8,5.09,2.09c0.05,0.05,0.11,0.11,0.16,0.18h0.01c0.14,0.15,0.27,0.3,0.4,0.47 c0.37,0.47,0.68,0.98,0.92,1.54c0.12,0.26,0.22,0.53,0.3,0.81c0.01,0.04,0.02,0.07,0.03,0.11c0.14,0.49,0.23,1,0.25,1.53 C28.1,39.2,28.11,39.36,28.11,39.52z"/><path d="M26.06,39.52c0,0.41-0.05,0.8-0.16,1.17c-0.1,0.4-0.25,0.78-0.44,1.14c-0.03,0.06-0.1,0.17-0.1,0.17h-8.88 c-0.01-0.01-0.02-0.03-0.02-0.04c-0.12-0.19-0.22-0.38-0.3-0.59c-0.2-0.46-0.32-0.96-0.36-1.48c-0.02-0.12-0.02-0.25-0.02-0.37 c0-0.06,0-0.13,0.01-0.19c0.01-0.44,0.07-0.86,0.19-1.25c0.1-0.36,0.23-0.69,0.4-1.01c0,0,0.01-0.01,0.01-0.02 c0.12-0.21,0.25-0.42,0.4-0.62c0.49-0.66,1.14-1.2,1.89-1.55c0.01,0,0.01,0,0.01,0c0.24-0.12,0.49-0.22,0.75-0.29c0,0,0,0,0.01,0 c0.46-0.14,0.96-0.21,1.47-0.21c0.59,0,1.16,0.09,1.68,0.28c0.19,0.05,0.37,0.13,0.55,0.22c0,0,0,0,0.01,0 c0.86,0.41,1.59,1.05,2.09,1.85c0.1,0.15,0.19,0.31,0.27,0.48c0.04,0.07,0.08,0.15,0.11,0.22c0.23,0.52,0.37,1.09,0.41,1.69 c0.01,0.05,0.01,0.1,0.01,0.16C26.06,39.36,26.06,39.44,26.06,39.52z"/><g><path stroke-linecap="round" stroke-linejoin="round" stroke-miterlimit="10" stroke-width="2" d="M30,11H18c-3.9,0-7,3.1-7,7v12c0,3.9,3.1,7,7,7h12c3.9,0,7-3.1,7-7V18C37,14.1,33.9,11,30,11z"/><circle cx="31" cy="16" r="1"/></g><g><circle cx="24" cy="24" r="6" stroke-linecap="round" stroke-linejoin="round" stroke-miterlimit="10" stroke-width="2"/></g></symbol><symbol viewBox="0 0 48 48" id="icons-pinterest" xmlns="http://www.w3.org/2000/svg"><circle cx="24" cy="24" r="20"/><path d="M24.4439087,11.4161377c-8.6323242,0-13.2153931,5.7946167-13.2153931,12.1030884 c0,2.9338379,1.5615234,6.5853882,4.0599976,7.7484131c0.378418,0.1762085,0.581543,0.1000366,0.668457-0.2669067 c0.0668945-0.2784424,0.4038086-1.6369019,0.5553589-2.2684326c0.0484619-0.2015381,0.0246582-0.3746338-0.1384277-0.5731201 c-0.8269653-1.0030518-1.4884644-2.8461304-1.4884644-4.5645752c0-4.4115601,3.3399658-8.6799927,9.0299683-8.6799927 c4.9130859,0,8.3530884,3.3484497,8.3530884,8.1369019c0,5.4099731-2.7322998,9.1584473-6.2869263,9.1584473 c-1.9630737,0-3.4330444-1.6238403-2.9615479-3.6153564c0.5654297-2.3769531,1.6569214-4.9415283,1.6569214-6.6584473 c0-1.5354004-0.8230591-2.8169556-2.5299683-2.8169556c-2.006958,0-3.6184692,2.0753784-3.6184692,4.8569336 c0,1.7700195,0.5984497,2.9684448,0.5984497,2.9684448s-1.9822998,8.3815308-2.3453979,9.9415283 c-0.4019775,1.72229-0.2453003,4.1416016-0.0713501,5.7233887l0,0c0.4511108,0.1768799,0.9024048,0.3537598,1.3687744,0.4981079l0,0 c0.8168945-1.3278198,2.0349731-3.5056763,2.4864502-5.2422485c0.2438354-0.9361572,1.2468872-4.7546387,1.2468872-4.7546387 c0.6515503,1.2438965,2.5561523,2.296936,4.5831299,2.296936c6.0314941,0,10.378418-5.546936,10.378418-12.4400024 C36.7738647,16.3591919,31.3823242,11.4161377,24.4439087,11.4161377z"/></symbol><symbol viewBox="0 0 48 48" id="icons-twitter" xmlns="http://www.w3.org/2000/svg"><path d="M42,12.429c-1.323,0.586-2.746,0.977-4.247,1.162c1.526-0.906,2.7-2.351,3.251-4.058c-1.428,0.837-3.01,1.452-4.693,1.776C34.967,9.884,33.05,9,30.926,9c-4.08,0-7.387,3.278-7.387,7.32c0,0.572,0.067,1.129,0.193,1.67c-6.138-0.308-11.582-3.226-15.224-7.654c-0.64,1.082-1,2.349-1,3.686c0,2.541,1.301,4.778,3.285,6.096c-1.211-0.037-2.351-0.374-3.349-0.914c0,0.022,0,0.055,0,0.086c0,3.551,2.547,6.508,5.923,7.181c-0.617,0.169-1.269,0.263-1.941,0.263c-0.477,0-0.942-0.054-1.392-0.135c0.94,2.902,3.667,5.023,6.898,5.086c-2.528,1.96-5.712,3.134-9.174,3.134c-0.598,0-1.183-0.034-1.761-0.104C9.268,36.786,13.152,38,17.321,38c13.585,0,21.017-11.156,21.017-20.834c0-0.317-0.01-0.633-0.025-0.945C39.763,15.197,41.013,13.905,42,12.429"/></symbol><symbol viewBox="0 0 24 24" id="menu-icon-activity" xmlns="http://www.w3.org/2000/svg">
<path d="M22 12H18L15 21L9 3L6 12H2" stroke-width="2" stroke-linecap="round" stroke-linejoin="round"/>
</symbol><symbol viewBox="0 0 20 19" id="menu-icon-arrow-right" xmlns="http://www.w3.org/2000/svg">
<path d="M4.16663 9.5H15.8333" stroke-width="2" stroke-linecap="round" stroke-linejoin="round"/>
<path d="M10 3.95833L15.8333 9.5L10 15.0417" stroke-width="2" stroke-linecap="round" stroke-linejoin="round"/>
</symbol><symbol viewBox="0 0 16 9" id="menu-icon-arrowdown" xmlns="http://www.w3.org/2000/svg">
<line x1="0.707107" y1="1" x2="8" y2="8.29289" stroke-linecap="round"/>
<line x1="0.5" y1="-0.5" x2="10.8137" y2="-0.5" transform="matrix(-0.707107 0.707107 0.707107 0.707107 16 1)" stroke-linecap="round"/>
</symbol><symbol viewBox="0 0 24 24" id="menu-icon-award" xmlns="http://www.w3.org/2000/svg">
<path d="M12 15C15.866 15 19 11.866 19 8C19 4.13401 15.866 1 12 1C8.13401 1 5 4.13401 5 8C5 11.866 8.13401 15 12 15Z" stroke-width="2" stroke-linecap="round" stroke-linejoin="round"/>
<path d="M8.21 13.89L7 23L12 20L17 23L15.79 13.88" stroke-width="2" stroke-linecap="round" stroke-linejoin="round"/>
</symbol><symbol viewBox="0 0 24 24" id="menu-icon-bell" xmlns="http://www.w3.org/2000/svg">
<path d="M18 8C18 6.4087 17.3679 4.88258 16.2426 3.75736C15.1174 2.63214 13.5913 2 12 2C10.4087 2 8.88258 2.63214 7.75736 3.75736C6.63214 4.88258 6 6.4087 6 8C6 15 3 17 3 17H21C21 17 18 15 18 8Z" stroke-width="2" stroke-linecap="round" stroke-linejoin="round"/>
<path d="M13.73 21C13.5542 21.3031 13.3018 21.5547 12.9982 21.7295C12.6946 21.9044 12.3504 21.9965 12 21.9965C11.6496 21.9965 11.3054 21.9044 11.0018 21.7295C10.6982 21.5547 10.4458 21.3031 10.27 21" stroke-width="2" stroke-linecap="round" stroke-linejoin="round"/>
</symbol><symbol viewBox="0 0 24 24" id="menu-icon-briefcase" xmlns="http://www.w3.org/2000/svg">
<path d="M20 7H4C2.89543 7 2 7.89543 2 9V19C2 20.1046 2.89543 21 4 21H20C21.1046 21 22 20.1046 22 19V9C22 7.89543 21.1046 7 20 7Z" stroke-width="2" stroke-linecap="round" stroke-linejoin="round"/>
<path d="M16 21V5C16 4.46957 15.7893 3.96086 15.4142 3.58579C15.0391 3.21071 14.5304 3 14 3H10C9.46957 3 8.96086 3.21071 8.58579 3.58579C8.21071 3.96086 8 4.46957 8 5V21" stroke-width="2" stroke-linecap="round" stroke-linejoin="round"/>
</symbol><symbol viewBox="0 0 24 24" id="menu-icon-gift" xmlns="http://www.w3.org/2000/svg">
<path d="M20 12V22H4V12" stroke-width="2" stroke-linecap="round" stroke-linejoin="round"/>
<path d="M22 7H2V12H22V7Z" stroke-width="2" stroke-linecap="round" stroke-linejoin="round"/>
<path d="M12 22V7" stroke-width="2" stroke-linecap="round" stroke-linejoin="round"/>
<path d="M12 7H7.5C6.83696 7 6.20107 6.73661 5.73223 6.26777C5.26339 5.79893 5 5.16304 5 4.5C5 3.83696 5.26339 3.20107 5.73223 2.73223C6.20107 2.26339 6.83696 2 7.5 2C11 2 12 7 12 7Z" stroke-width="2" stroke-linecap="round" stroke-linejoin="round"/>
<path d="M12 7H16.5C17.163 7 17.7989 6.73661 18.2678 6.26777C18.7366 5.79893 19 5.16304 19 4.5C19 3.83696 18.7366 3.20107 18.2678 2.73223C17.7989 2.26339 17.163 2 16.5 2C13 2 12 7 12 7Z" stroke-width="2" stroke-linecap="round" stroke-linejoin="round"/>
</symbol><symbol viewBox="0 0 24 24" id="menu-icon-globe" xmlns="http://www.w3.org/2000/svg">
<path d="M12 22C17.5228 22 22 17.5228 22 12C22 6.47715 17.5228 2 12 2C6.47715 2 2 6.47715 2 12C2 17.5228 6.47715 22 12 22Z" stroke-width="2" stroke-linecap="round" stroke-linejoin="round"/>
<path d="M2 12H22" stroke-width="2" stroke-linecap="round" stroke-linejoin="round"/>
<path d="M12 2C14.5013 4.73835 15.9228 8.29203 16 12C15.9228 15.708 14.5013 19.2616 12 22C9.49872 19.2616 8.07725 15.708 8 12C8.07725 8.29203 9.49872 4.73835 12 2V2Z" stroke-width="2" stroke-linecap="round" stroke-linejoin="round"/>
</symbol><symbol viewBox="0 0 24 24" id="menu-icon-home" xmlns="http://www.w3.org/2000/svg">
<path d="M3 9L12 2L21 9V20C21 20.5304 20.7893 21.0391 20.4142 21.4142C20.0391 21.7893 19.5304 22 19 22H5C4.46957 22 3.96086 21.7893 3.58579 21.4142C3.21071 21.0391 3 20.5304 3 20V9Z" stroke-width="2" stroke-linecap="round" stroke-linejoin="round"/>
<path d="M9 22V12H15V22" stroke-width="2" stroke-linecap="round" stroke-linejoin="round"/>
</symbol><symbol viewBox="0 0 24 24" id="menu-icon-message-circle" xmlns="http://www.w3.org/2000/svg">
<path d="M21 11.5C21.0034 12.8199 20.6951 14.1219 20.1 15.3C19.3944 16.7117 18.3098 17.8992 16.9674 18.7293C15.6251 19.5594 14.0782 19.9994 12.5 20C11.1801 20.0034 9.87812 19.6951 8.7 19.1L3 21L4.9 15.3C4.30493 14.1219 3.99656 12.8199 4 11.5C4.00061 9.92176 4.44061 8.37485 5.27072 7.03255C6.10083 5.69025 7.28825 4.60557 8.7 3.9C9.87812 3.30493 11.1801 2.99656 12.5 3H13C15.0843 3.11499 17.053 3.99476 18.5291 5.47086C20.0052 6.94695 20.885 8.91565 21 11V11.5Z" stroke-width="2" stroke-linecap="round" stroke-linejoin="round"/>
</symbol><symbol viewBox="0 0 24 24" id="menu-icon-play-circle" xmlns="http://www.w3.org/2000/svg">
<path d="M12 22C17.5228 22 22 17.5228 22 12C22 6.47715 17.5228 2 12 2C6.47715 2 2 6.47715 2 12C2 17.5228 6.47715 22 12 22Z" stroke-width="2" stroke-linecap="round" stroke-linejoin="round"/>
<path d="M10 8L16 12L10 16V8Z" stroke-width="2" stroke-linecap="round" stroke-linejoin="round"/>
</symbol><symbol viewBox="0 0 18 18" id="menu-icon-search" xmlns="http://www.w3.org/2000/svg">
<path d="M8.25 14.25C11.5637 14.25 14.25 11.5637 14.25 8.25C14.25 4.93629 11.5637 2.25 8.25 2.25C4.93629 2.25 2.25 4.93629 2.25 8.25C2.25 11.5637 4.93629 14.25 8.25 14.25Z" stroke-width="2" stroke-linecap="round" stroke-linejoin="round"/>
<path d="M15.75 15.75L12.4875 12.4875" stroke-width="2" stroke-linecap="round" stroke-linejoin="round"/>
</symbol><symbol viewBox="0 0 24 24" id="menu-icon-settings" xmlns="http://www.w3.org/2000/svg">
<g clip-path="url(#auclip0_4_105)">
<path d="M12 15C13.6569 15 15 13.6569 15 12C15 10.3431 13.6569 9 12 9C10.3431 9 9 10.3431 9 12C9 13.6569 10.3431 15 12 15Z" stroke-width="2" stroke-linecap="round" stroke-linejoin="round"/>
<path d="M19.4 15C19.2669 15.3016 19.2272 15.6362 19.286 15.9606C19.3448 16.285 19.4995 16.5843 19.73 16.82L19.79 16.88C19.976 17.0657 20.1235 17.2863 20.2241 17.5291C20.3248 17.7719 20.3766 18.0322 20.3766 18.295C20.3766 18.5578 20.3248 18.8181 20.2241 19.0609C20.1235 19.3037 19.976 19.5243 19.79 19.71C19.6043 19.896 19.3837 20.0435 19.1409 20.1441C18.8981 20.2448 18.6378 20.2966 18.375 20.2966C18.1122 20.2966 17.8519 20.2448 17.6091 20.1441C17.3663 20.0435 17.1457 19.896 16.96 19.71L16.9 19.65C16.6643 19.4195 16.365 19.2648 16.0406 19.206C15.7162 19.1472 15.3816 19.1869 15.08 19.32C14.7842 19.4468 14.532 19.6572 14.3543 19.9255C14.1766 20.1938 14.0813 20.5082 14.08 20.83V21C14.08 21.5304 13.8693 22.0391 13.4942 22.4142C13.1191 22.7893 12.6104 23 12.08 23C11.5496 23 11.0409 22.7893 10.6658 22.4142C10.2907 22.0391 10.08 21.5304 10.08 21V20.91C10.0723 20.579 9.96512 20.258 9.77251 19.9887C9.5799 19.7194 9.31074 19.5143 9 19.4C8.69838 19.2669 8.36381 19.2272 8.03941 19.286C7.71502 19.3448 7.41568 19.4995 7.18 19.73L7.12 19.79C6.93425 19.976 6.71368 20.1235 6.47088 20.2241C6.22808 20.3248 5.96783 20.3766 5.705 20.3766C5.44217 20.3766 5.18192 20.3248 4.93912 20.2241C4.69632 20.1235 4.47575 19.976 4.29 19.79C4.10405 19.6043 3.95653 19.3837 3.85588 19.1409C3.75523 18.8981 3.70343 18.6378 3.70343 18.375C3.70343 18.1122 3.75523 17.8519 3.85588 17.6091C3.95653 17.3663 4.10405 17.1457 4.29 16.96L4.35 16.9C4.58054 16.6643 4.73519 16.365 4.794 16.0406C4.85282 15.7162 4.81312 15.3816 4.68 15.08C4.55324 14.7842 4.34276 14.532 4.07447 14.3543C3.80618 14.1766 3.49179 14.0813 3.17 14.08H3C2.46957 14.08 1.96086 13.8693 1.58579 13.4942C1.21071 13.1191 1 12.6104 1 12.08C1 11.5496 1.21071 11.0409 1.58579 10.6658C1.96086 10.2907 2.46957 10.08 3 10.08H3.09C3.42099 10.0723 3.742 9.96512 4.0113 9.77251C4.28059 9.5799 4.48572 9.31074 4.6 9C4.73312 8.69838 4.77282 8.36381 4.714 8.03941C4.65519 7.71502 4.50054 7.41568 4.27 7.18L4.21 7.12C4.02405 6.93425 3.87653 6.71368 3.77588 6.47088C3.67523 6.22808 3.62343 5.96783 3.62343 5.705C3.62343 5.44217 3.67523 5.18192 3.77588 4.93912C3.87653 4.69632 4.02405 4.47575 4.21 4.29C4.39575 4.10405 4.61632 3.95653 4.85912 3.85588C5.10192 3.75523 5.36217 3.70343 5.625 3.70343C5.88783 3.70343 6.14808 3.75523 6.39088 3.85588C6.63368 3.95653 6.85425 4.10405 7.04 4.29L7.1 4.35C7.33568 4.58054 7.63502 4.73519 7.95941 4.794C8.28381 4.85282 8.61838 4.81312 8.92 4.68H9C9.29577 4.55324 9.54802 4.34276 9.72569 4.07447C9.90337 3.80618 9.99872 3.49179 10 3.17V3C10 2.46957 10.2107 1.96086 10.5858 1.58579C10.9609 1.21071 11.4696 1 12 1C12.5304 1 13.0391 1.21071 13.4142 1.58579C13.7893 1.96086 14 2.46957 14 3V3.09C14.0013 3.41179 14.0966 3.72618 14.2743 3.99447C14.452 4.26276 14.7042 4.47324 15 4.6C15.3016 4.73312 15.6362 4.77282 15.9606 4.714C16.285 4.65519 16.5843 4.50054 16.82 4.27L16.88 4.21C17.0657 4.02405 17.2863 3.87653 17.5291 3.77588C17.7719 3.67523 18.0322 3.62343 18.295 3.62343C18.5578 3.62343 18.8181 3.67523 19.0609 3.77588C19.3037 3.87653 19.5243 4.02405 19.71 4.21C19.896 4.39575 20.0435 4.61632 20.1441 4.85912C20.2448 5.10192 20.2966 5.36217 20.2966 5.625C20.2966 5.88783 20.2448 6.14808 20.1441 6.39088C20.0435 6.63368 19.896 6.85425 19.71 7.04L19.65 7.1C19.4195 7.33568 19.2648 7.63502 19.206 7.95941C19.1472 8.28381 19.1869 8.61838 19.32 8.92V9C19.4468 9.29577 19.6572 9.54802 19.9255 9.72569C20.1938 9.90337 20.5082 9.99872 20.83 10H21C21.5304 10 22.0391 10.2107 22.4142 10.5858C22.7893 10.9609 23 11.4696 23 12C23 12.5304 22.7893 13.0391 22.4142 13.4142C22.0391 13.7893 21.5304 14 21 14H20.91C20.5882 14.0013 20.2738 14.0966 20.0055 14.2743C19.7372 14.452 19.5268 14.7042 19.4 15V15Z" stroke-width="2" stroke-linecap="round" stroke-linejoin="round"/>
</g>
<defs>
<clipPath id="auclip0_4_105">
<rect width="24" height="24"/>
</clipPath>
</defs>
</symbol><symbol viewBox="0 0 24 24" id="menu-icon-shield" xmlns="http://www.w3.org/2000/svg">
<path d="M12 22C12 22 20 18 20 12V5L12 2L4 5V12C4 18 12 22 12 22Z" stroke-width="2" stroke-linecap="round" stroke-linejoin="round"/>
<path d="M12 9V15" stroke-width="2"/>
<path d="M15 12L9 12" stroke-width="2"/>
</symbol><symbol viewBox="0 0 24 24" id="menu-icon-user" xmlns="http://www.w3.org/2000/svg">
<path d="M20 21V19C20 17.9391 19.5786 16.9217 18.8284 16.1716C18.0783 15.4214 17.0609 15 16 15H8C6.93913 15 5.92172 15.4214 5.17157 16.1716C4.42143 16.9217 4 17.9391 4 19V21" stroke-width="2" stroke-linecap="round" stroke-linejoin="round"/>
<path d="M12 11C14.2091 11 16 9.20914 16 7C16 4.79086 14.2091 3 12 3C9.79086 3 8 4.79086 8 7C8 9.20914 9.79086 11 12 11Z" stroke-width="2" stroke-linecap="round" stroke-linejoin="round"/>
</symbol><symbol viewBox="0 0 17 16" id="pocket-crumbs-icon" xmlns="http://www.w3.org/2000/svg">
<g clip-path="url(#axclip0_7_142)">
<path d="M2.98943 2H13.8677C14.2284 2 14.5742 2.14048 14.8293 2.39052C15.0843 2.64057 15.2275 2.97971 15.2275 3.33333V7.33333C15.2275 9.10144 14.5112 10.7971 13.2362 12.0474C11.9611 13.2976 10.2318 14 8.42858 14C7.53573 14 6.65162 13.8276 5.82674 13.4925C5.00185 13.1575 4.25234 12.6664 3.621 12.0474C2.34595 10.7971 1.62964 9.10144 1.62964 7.33333V3.33333C1.62964 2.97971 1.7729 2.64057 2.02791 2.39052C2.28292 2.14048 2.62879 2 2.98943 2V2Z" stroke-width="2" stroke-linecap="round" stroke-linejoin="round"/>
<path d="M5.70898 6.66667L8.42856 9.33333L11.1481 6.66667" stroke-width="2" stroke-linecap="round" stroke-linejoin="round"/>
</g>
<defs>
<clipPath id="axclip0_7_142">
<rect width="16.3175" height="16" transform="translate(0.269836)"/>
</clipPath>
</defs>
</symbol><symbol viewBox="0 0 17 16" id="share-crumbs-icon" xmlns="http://www.w3.org/2000/svg">
<path d="M3.40216 8V13.3333C3.40216 13.687 3.54542 14.0261 3.80043 14.2761C4.05544 14.5262 4.40131 14.6667 4.76195 14.6667H12.9207C13.2813 14.6667 13.6272 14.5262 13.8822 14.2761C14.1372 14.0261 14.2805 13.687 14.2805 13.3333V8" stroke-width="2" stroke-linecap="round" stroke-linejoin="round"/>
<path d="M11.5609 4L8.84128 1.33333L6.1217 4" stroke-width="2" stroke-linecap="round" stroke-linejoin="round"/>
<path d="M8.84131 1.33333V10" stroke-width="2" stroke-linecap="round" stroke-linejoin="round"/>
</symbol><symbol viewBox="0 0 18 18" id="weather-crosshair-icon" xmlns="http://www.w3.org/2000/svg">
<g clip-path="url(#azclip0_7_132)">
<path d="M9 16.5C13.1421 16.5 16.5 13.1421 16.5 9C16.5 4.85786 13.1421 1.5 9 1.5C4.85786 1.5 1.5 4.85786 1.5 9C1.5 13.1421 4.85786 16.5 9 16.5Z" stroke-width="2" stroke-linecap="round" stroke-linejoin="round"/>
<path d="M16.5 9H13.5" stroke-width="2" stroke-linecap="round" stroke-linejoin="round"/>
<path d="M4.5 9H1.5" stroke-width="2" stroke-linecap="round" stroke-linejoin="round"/>
<path d="M9 4.5V1.5" stroke-width="2" stroke-linecap="round" stroke-linejoin="round"/>
<path d="M9 16.5V13.5" stroke-width="2" stroke-linecap="round" stroke-linejoin="round"/>
</g>
<defs>
<clipPath id="azclip0_7_132">
<rect width="18" height="18"/>
</clipPath>
</defs>
</symbol><symbol viewBox="0 0 52 52" id="weather-sun-icon" xmlns="http://www.w3.org/2000/svg">
<path d="M26 36.8333C31.983 36.8333 36.8333 31.9831 36.8333 26C36.8333 20.0169 31.983 15.1667 26 15.1667C20.0169 15.1667 15.1666 20.0169 15.1666 26C15.1666 31.9831 20.0169 36.8333 26 36.8333Z" stroke-width="2" stroke-linecap="round" stroke-linejoin="round"/>
<path d="M26 2.16666V6.5" stroke-width="2" stroke-linecap="round" stroke-linejoin="round"/>
<path d="M26 45.5V49.8333" stroke-width="2" stroke-linecap="round" stroke-linejoin="round"/>
<path d="M9.14331 9.14333L12.22 12.22" stroke-width="2" stroke-linecap="round" stroke-linejoin="round"/>
<path d="M39.78 39.78L42.8567 42.8567" stroke-width="2" stroke-linecap="round" stroke-linejoin="round"/>
<path d="M2.16663 26H6.49996" stroke-width="2" stroke-linecap="round" stroke-linejoin="round"/>
<path d="M45.5 26H49.8333" stroke-width="2" stroke-linecap="round" stroke-linejoin="round"/>
<path d="M9.14331 42.8567L12.22 39.78" stroke-width="2" stroke-linecap="round" stroke-linejoin="round"/>
<path d="M39.78 12.22L42.8567 9.14333" stroke-width="2" stroke-linecap="round" stroke-linejoin="round"/>
</symbol></svg>